<svg width="24" height="24" viewBox="0 0 24 24" fill="none" xmlns="http://www.w3.org/2000/svg">
<path d="M19.72 17.14H4.28999C3.80999 17.14 3.39999 17.46 3.28999 17.91L2.78999 20.02C2.63999 20.65 3.12999 21.25 3.78999 21.25H20.23C20.89 21.25 21.38 20.65 21.23 20.02L20.73 17.91C20.61 17.46 20.2 17.14 19.72 17.14Z" stroke="white" stroke-width="1.5214" stroke-linecap="round" stroke-linejoin="round"/>
<path d="M9.7 9.84H5.59V17.14H9.7V9.84Z" stroke="white" stroke-width="1.5" stroke-linecap="round" stroke-linejoin="round"/>
<path d="M17.91 9.84H13.8V17.14H17.91V9.84Z" stroke="white" stroke-width="1.5" stroke-linecap="round" stroke-linejoin="round"/>
<path d="M21.25 7.95001C21.25 8.99001 20.41 9.84001 19.38 9.84001H4.62C3.59 9.84001 2.75 9.00001 2.75 7.95001C2.75 7.20001 3.18 6.53001 3.86 6.23001L11.24 2.92C11.72 2.7 12.27 2.7 12.76 2.92L20.14 6.23001C20.82 6.53001 21.25 7.20001 21.25 7.95001Z" stroke="white" stroke-width="1.5" stroke-linecap="round" stroke-linejoin="round"/>
<path d="M11.49 6.72H12.51" stroke="white" stroke-width="1.5" stroke-linecap="round" stroke-linejoin="round"/>
</svg>
