<svg width="24" height="24" viewBox="0 0 24 24" fill="none" xmlns="http://www.w3.org/2000/svg">
<path d="M18.35 6.22L12.11 2.75L5.60999 6.36" stroke="white" stroke-width="1.5" stroke-linecap="round" stroke-linejoin="round"/>
<path d="M13.57 19.35L19.94 15.81V8.75999" stroke="white" stroke-width="1.5" stroke-linecap="round" stroke-linejoin="round"/>
<path d="M4.28 8.92999V15.81L10.32 19.17" stroke="white" stroke-width="1.5" stroke-linecap="round" stroke-linejoin="round"/>
<path d="M15.69 13.63V9.28L12.11 7.10001L8.53 9.28V13.63L12.11 15.81L15.69 13.63Z" stroke="white" stroke-width="1.5" stroke-linecap="round" stroke-linejoin="round"/>
<path d="M12.11 15.81V11.46" stroke="white" stroke-width="1.5" stroke-linecap="round" stroke-linejoin="round"/>
<path d="M8.53 9.28L12.11 11.46" stroke="white" stroke-width="1.5" stroke-linecap="round" stroke-linejoin="round"/>
<path d="M15.69 9.28L12.11 11.46" stroke="white" stroke-width="1.5" stroke-linecap="round" stroke-linejoin="round"/>
<path d="M4.28 8.64C5.12499 8.64 5.81 7.95052 5.81 7.10001C5.81 6.24949 5.12499 5.56 4.28 5.56C3.435 5.56 2.75 6.24949 2.75 7.10001C2.75 7.95052 3.435 8.64 4.28 8.64Z" stroke="white" stroke-width="1.5" stroke-linecap="round" stroke-linejoin="round"/>
<path d="M12.04 21.25C12.885 21.25 13.57 20.5605 13.57 19.71C13.57 18.8595 12.885 18.17 12.04 18.17C11.195 18.17 10.51 18.8595 10.51 19.71C10.51 20.5605 11.195 21.25 12.04 21.25Z" stroke="white" stroke-width="1.5" stroke-linecap="round" stroke-linejoin="round"/>
<path d="M19.72 8.64C20.565 8.64 21.25 7.95052 21.25 7.10001C21.25 6.24949 20.565 5.56 19.72 5.56C18.875 5.56 18.19 6.24949 18.19 7.10001C18.19 7.95052 18.875 8.64 19.72 8.64Z" stroke="white" stroke-width="1.5" stroke-linecap="round" stroke-linejoin="round"/>
</svg>
