<svg width="24" height="24" viewBox="0 0 24 24" fill="none" xmlns="http://www.w3.org/2000/svg">
<path d="M12 19.31H4.81C3.68 19.31 2.75 18.38 2.75 17.25V6.96997C2.75 5.83997 3.68 4.90997 4.81 4.90997H5.72" stroke="white" stroke-width="1.5" stroke-linecap="round" stroke-linejoin="round"/>
<path d="M12 4.91999V19.31C11.69 18.81 10.77 17.48 8.98996 16.75C8.17996 16.42 7.40997 16.31 6.80997 16.28C6.25997 16.26 5.83997 15.8 5.83997 15.26V3.87C5.83997 3.29 6.30998 2.82003 6.88998 2.84003C7.45998 2.86003 8.13996 2.94999 8.86996 3.16999C10.4 3.61999 11.45 4.42999 12 4.91999Z" stroke="white" stroke-width="1.5" stroke-linecap="round" stroke-linejoin="round"/>
<path d="M21.25 6.96997V17.25C21.25 18.38 20.32 19.31 19.19 19.31H12V4.91998H19.19C20.32 4.91998 21.25 5.83997 21.25 6.96997Z" stroke="white" stroke-width="1.5" stroke-linecap="round" stroke-linejoin="round"/>
<path d="M15.07 7.96997H18.18" stroke="white" stroke-width="1.5" stroke-linecap="round" stroke-linejoin="round"/>
<path d="M15.07 12.11H18.18" stroke="white" stroke-width="1.5" stroke-linecap="round" stroke-linejoin="round"/>
<path d="M15.07 16.26H18.18" stroke="white" stroke-width="1.5" stroke-linecap="round" stroke-linejoin="round"/>
</svg>
