<svg width="24" height="24" viewBox="0 0 24 24" fill="none" xmlns="http://www.w3.org/2000/svg">
<path d="M11.98 17.45C16.0393 17.45 19.33 14.1593 19.33 10.1C19.33 6.04071 16.0393 2.75 11.98 2.75C7.92072 2.75 4.63 6.04071 4.63 10.1C4.63 14.1593 7.92072 17.45 11.98 17.45Z" stroke="white" stroke-width="1.5" stroke-linecap="round" stroke-linejoin="round"/>
<path d="M6 14.5L3.5 18.77L6.45001 18.61L7.79001 21.24L10 17.5C8.33 17.07 6.99 15.86 6 14.5Z" stroke="white" stroke-width="1.5" stroke-linecap="round" stroke-linejoin="round"/>
<path d="M18 14.5C17.02 15.87 15.67 17.06 14 17.5L16.21 21.25L17.55 18.62L20.5 18.78L18 14.5Z" stroke="white" stroke-width="1.5" stroke-linecap="round" stroke-linejoin="round"/>
<path d="M16.18 9.17002C16.37 8.99002 16.26 8.66001 16 8.63001L13.59 8.28001C13.49 8.26001 13.4 8.20001 13.35 8.10001L12.27 5.91001C12.15 5.67001 11.81 5.67001 11.7 5.91001L10.62 8.10001C10.57 8.19001 10.48 8.26001 10.38 8.28001L7.96998 8.63001C7.70998 8.67001 7.60998 8.99002 7.78998 9.17002L9.53998 10.87C9.61998 10.95 9.64998 11.05 9.62998 11.15L9.21998 13.55C9.16998 13.81 9.44997 14.01 9.67997 13.88L11.84 12.75C11.93 12.7 12.05 12.7 12.14 12.75L14.3 13.88C14.53 14 14.81 13.8 14.76 13.55L14.35 11.15C14.33 11.05 14.37 10.94 14.44 10.87L16.18 9.17002Z" stroke="white" stroke-width="1.5" stroke-linecap="round" stroke-linejoin="round"/>
</svg>
