<svg width="24" height="24" viewBox="0 0 24 24" fill="none" xmlns="http://www.w3.org/2000/svg">
<path d="M2.75 7.9V5.83C2.75 4.12 4.13 2.75 5.83 2.75H7.99001" stroke="white" stroke-width="1.5" stroke-linecap="round" stroke-linejoin="round"/>
<path d="M21.1 7.9V5.83C21.1 4.12 19.72 2.75 18.02 2.75H15.86" stroke="white" stroke-width="1.5" stroke-linecap="round" stroke-linejoin="round"/>
<path d="M2.75 16.02V18.09C2.75 19.8 4.13 21.17 5.83 21.17H7.99001" stroke="white" stroke-width="1.5" stroke-linecap="round" stroke-linejoin="round"/>
<path d="M21.1 16.02V18.09C21.1 19.8 19.72 21.17 18.02 21.17H15.86" stroke="white" stroke-width="1.5" stroke-linecap="round" stroke-linejoin="round"/>
<path d="M16.69 13.4408C17.1041 13.7967 16.8125 14.3975 16.2233 14.3975H11.9125V7.65417H16.2233C16.8125 7.65417 17.1041 8.26084 16.69 8.61084L14.9341 10.11C14.345 10.6117 14.345 11.4342 14.9341 11.9358L16.69 13.4408Z" stroke="white" stroke-width="1.5" stroke-linecap="round" stroke-linejoin="round"/>
<path d="M7.11749 11.3992V17.3958" stroke="white" stroke-width="1.5" stroke-linecap="round" stroke-linejoin="round"/>
<path d="M11.3117 13.2017H7.71253C7.38003 13.2017 7.11169 12.9334 7.11169 12.6009V7.20502C7.11169 6.87252 7.38003 6.60419 7.71253 6.60419H11.3117C11.6442 6.60419 11.9125 6.87252 11.9125 7.20502V12.6009C11.9125 12.9334 11.6442 13.2017 11.3117 13.2017Z" stroke="white" stroke-width="1.5" stroke-linecap="round" stroke-linejoin="round"/>
</svg>
