<svg width="24" height="24" viewBox="0 0 24 24" fill="none" xmlns="http://www.w3.org/2000/svg">
<path d="M12 20.09C16.468 20.09 20.09 16.468 20.09 12C20.09 7.53202 16.468 3.90997 12 3.90997C7.53202 3.90997 3.91 7.53202 3.91 12C3.91 16.468 7.53202 20.09 12 20.09Z" stroke="white" stroke-width="1.5" stroke-linecap="round" stroke-linejoin="round"/>
<path d="M18.94 12H21.25" stroke="white" stroke-width="1.5" stroke-linecap="round" stroke-linejoin="round"/>
<path d="M5.06 12H2.75" stroke="white" stroke-width="1.5" stroke-linecap="round" stroke-linejoin="round"/>
<path d="M12 5.06V2.75" stroke="white" stroke-width="1.5" stroke-linecap="round" stroke-linejoin="round"/>
<path d="M12 18.94V21.25" stroke="white" stroke-width="1.5" stroke-linecap="round" stroke-linejoin="round"/>
<path d="M12 14.31C13.2758 14.31 14.31 13.2758 14.31 12C14.31 10.7242 13.2758 9.69 12 9.69C10.7242 9.69 9.69 10.7242 9.69 12C9.69 13.2758 10.7242 14.31 12 14.31Z" stroke="white" stroke-width="1.5" stroke-linecap="round" stroke-linejoin="round"/>
</svg>
