<svg width="24" height="24" viewBox="0 0 24 24" fill="none" xmlns="http://www.w3.org/2000/svg">
<path d="M19.19 19.19V21.25" stroke="white" stroke-width="1.5" stroke-linecap="round" stroke-linejoin="round"/>
<path d="M19.19 2.75V15.08" stroke="white" stroke-width="1.5" stroke-linecap="round" stroke-linejoin="round"/>
<path d="M19.19 19.2C20.3277 19.2 21.25 18.2777 21.25 17.14C21.25 16.0023 20.3277 15.08 19.19 15.08C18.0523 15.08 17.13 16.0023 17.13 17.14C17.13 18.2777 18.0523 19.2 19.19 19.2Z" stroke="white" stroke-width="1.5" stroke-linecap="round" stroke-linejoin="round"/>
<path d="M4.81 19.19V21.25" stroke="white" stroke-width="1.5" stroke-linecap="round" stroke-linejoin="round"/>
<path d="M4.81 2.75V15.08" stroke="white" stroke-width="1.5" stroke-linecap="round" stroke-linejoin="round"/>
<path d="M4.81 19.2C5.9477 19.2 6.87 18.2777 6.87 17.14C6.87 16.0023 5.9477 15.08 4.81 15.08C3.67229 15.08 2.75 16.0023 2.75 17.14C2.75 18.2777 3.67229 19.2 4.81 19.2Z" stroke="white" stroke-width="1.5" stroke-linecap="round" stroke-linejoin="round"/>
<path d="M12 8.91998V21.25" stroke="white" stroke-width="1.5" stroke-linecap="round" stroke-linejoin="round"/>
<path d="M12 2.75V4.81" stroke="white" stroke-width="1.5" stroke-linecap="round" stroke-linejoin="round"/>
<path d="M12 8.91999C13.1377 8.91999 14.06 7.99769 14.06 6.85999C14.06 5.72228 13.1377 4.79999 12 4.79999C10.8623 4.79999 9.94 5.72228 9.94 6.85999C9.94 7.99769 10.8623 8.91999 12 8.91999Z" stroke="white" stroke-width="1.5" stroke-linecap="round" stroke-linejoin="round"/>
</svg>
