<svg width="32" height="32" viewBox="0 0 32 32" fill="none" xmlns="http://www.w3.org/2000/svg">
<path d="M17.6966 15.8188L20.4707 9.19999C20.5876 8.86897 20.5693 8.50521 20.4198 8.18758C20.2703 7.86995 20.0016 7.62406 19.672 7.50321C19.3543 7.34986 18.9887 7.32863 18.6553 7.44417C18.322 7.55971 18.0479 7.80261 17.8932 8.1197L15.1191 14.7385" stroke="white" stroke-width="1.5" stroke-linecap="round" stroke-linejoin="round"/>
<path d="M19.8158 10.7626C19.9783 10.4507 20.252 10.2113 20.5827 10.0917C20.9135 9.97219 21.2771 9.98129 21.6014 10.1172C21.9258 10.2532 22.1872 10.506 22.3339 10.8257C22.4805 11.1453 22.5017 11.5084 22.3933 11.8429L20.2741 16.8991" stroke="white" stroke-width="1.5" stroke-linecap="round" stroke-linejoin="round"/>
<path d="M21.5993 21.1183L24.3735 14.4995C24.4688 14.1671 24.4389 13.8112 24.2893 13.4994C24.1397 13.1876 23.881 12.9416 23.562 12.8079C23.2431 12.6742 22.8862 12.6622 22.559 12.7742C22.2318 12.8862 21.9571 13.1143 21.787 13.4154" stroke="white" stroke-width="1.5" stroke-linecap="round" stroke-linejoin="round"/>
<path d="M17.2383 9.68233C17.298 9.51731 17.3246 9.34214 17.3165 9.16684C17.3084 8.99154 17.2658 8.81957 17.1911 8.66077C17.1164 8.50196 17.0111 8.35946 16.8813 8.2414C16.7514 8.12335 16.5996 8.03208 16.4344 7.97281C16.1157 7.82198 15.7501 7.8035 15.4178 7.92141C15.0854 8.03933 14.8133 8.28404 14.6608 8.60204L11.8867 15.2209" stroke="white" stroke-width="1.5" stroke-linecap="round" stroke-linejoin="round"/>
<path d="M21.5993 21.1182C21.0353 22.5579 19.9638 23.7414 18.5871 24.4452C17.2103 25.1491 15.6235 25.3246 14.1262 24.9387C12.6289 24.5528 11.3247 23.6321 10.4597 22.3505C9.59462 21.0689 9.22865 19.5149 9.43081 17.982C9.47429 17.3928 9.43468 16.8004 9.31314 16.2222L8.59286 12.4994C8.5602 12.332 8.56397 12.1595 8.60393 11.9937C8.64388 11.8278 8.71907 11.6726 8.82439 11.5384C8.92971 11.4042 9.06269 11.2943 9.21429 11.2161C9.36588 11.1379 9.53253 11.0933 9.70291 11.0853C10.0688 11.0448 10.4368 11.1404 10.7368 11.3537C11.0368 11.5671 11.2478 11.8833 11.3297 12.2422L11.892 15.2336" stroke="white" stroke-width="1.5" stroke-linecap="round" stroke-linejoin="round"/>
</svg>
