<svg width="24" height="24" viewBox="0 0 24 24" fill="none" xmlns="http://www.w3.org/2000/svg">
<path d="M2.75 7.9V5.83C2.75 4.12 4.13 2.75 5.83 2.75H7.99001" stroke="white" stroke-width="1.5" stroke-linecap="round" stroke-linejoin="round"/>
<path d="M21.1 7.9V5.83C21.1 4.12 19.72 2.75 18.02 2.75H15.86" stroke="white" stroke-width="1.5" stroke-linecap="round" stroke-linejoin="round"/>
<path d="M2.75 16.02V18.09C2.75 19.8 4.13 21.17 5.83 21.17H7.99001" stroke="white" stroke-width="1.5" stroke-linecap="round" stroke-linejoin="round"/>
<path d="M21.1 16.02V18.09C21.1 19.8 19.72 21.17 18.02 21.17H15.86" stroke="white" stroke-width="1.5" stroke-linecap="round" stroke-linejoin="round"/>
<path d="M16.625 9.255L12 11.14L7.375 9.255L12 7.375L16.625 9.255Z" stroke="white" stroke-width="1.5" stroke-linecap="round" stroke-linejoin="round"/>
<path d="M12 11.14V16.625L7.375 14.745V9.255L12 11.14Z" stroke="white" stroke-width="1.5" stroke-linecap="round" stroke-linejoin="round"/>
<path d="M16.625 9.255V14.745L12 16.625V11.14L16.625 9.255Z" stroke="white" stroke-width="1.5" stroke-linecap="round" stroke-linejoin="round"/>
</svg>
