<svg width="24" height="24" viewBox="0 0 24 24" fill="none" xmlns="http://www.w3.org/2000/svg">
<path d="M10.6 3.14344C8.15004 3.65344 6.17003 5.62341 5.65003 8.08341C5.21003 10.1634 5.75005 12.2534 7.14005 13.8134C7.82005 14.5734 8.21003 15.5834 8.21003 16.5734V17.6534C8.21003 18.3834 8.68002 18.9934 9.33002 19.2034C9.55002 20.4634 10.65 21.4834 12 21.4834C13.36 21.4834 14.4601 20.4634 14.6701 19.2034C15.3201 18.9834 15.79 18.3834 15.79 17.6534V16.5734C15.79 15.5734 16.1801 14.5834 16.8901 13.7634C17.9301 12.5834 18.5 11.0634 18.5 9.48343C18.5 5.40343 14.74 2.28344 10.6 3.14344Z" stroke="white" stroke-width="1.5" stroke-linecap="round" stroke-linejoin="round"/>
<path d="M11.99 6.0834C13.88 6.0834 15.42 7.62342 15.42 9.50342" stroke="white" stroke-width="1.5" stroke-linecap="round" stroke-linejoin="round"/>
<path d="M8.91003 18.4234H15.08" stroke="white" stroke-width="1.5" stroke-linecap="round" stroke-linejoin="round"/>
<path d="M8.4079 15.3334H15.6432" stroke="white" stroke-width="1.5" stroke-linecap="round" stroke-linejoin="round"/>
</svg>
