<svg width="24" height="24" viewBox="0 0 24 24" fill="none" xmlns="http://www.w3.org/2000/svg">
<path d="M3.76001 18.11V14.12C3.76001 12.38 5.17001 10.96 6.92001 10.96H17.09C18.83 10.96 20.25 12.37 20.25 14.12V18.11C20.25 19.85 18.84 21.27 17.09 21.27H6.92001C5.17001 21.27 3.76001 19.86 3.76001 18.11Z" stroke="white" stroke-width="1.5" stroke-linecap="round" stroke-linejoin="round"/>
<path d="M6.85001 10.97V7.91999C6.85001 5.07999 9.16 2.76999 12 2.76999C14.84 2.76999 17.15 5.07999 17.15 7.91999V10.97H6.85001Z" stroke="white" stroke-width="1.5" stroke-linecap="round" stroke-linejoin="round"/>
<path d="M12 18.18V15.6" stroke="white" stroke-width="1.5" stroke-linecap="round" stroke-linejoin="round"/>
<path d="M12 16.12C12.5689 16.12 13.03 15.6588 13.03 15.09C13.03 14.5211 12.5689 14.06 12 14.06C11.4311 14.06 10.97 14.5211 10.97 15.09C10.97 15.6588 11.4311 16.12 12 16.12Z" fill="white" stroke="white" stroke-width="1.5" stroke-linecap="round" stroke-linejoin="round"/>
</svg>
