<svg width="24" height="24" viewBox="0 0 24 24" fill="none" xmlns="http://www.w3.org/2000/svg">
<path d="M19.49 9.13L18.28 9.66997L18.02 9.78997L17.31 10.1L12.19 12.38C12.06 12.44 11.94 12.47 11.8 12.49C11.59 12.53 11.37 12.53 11.16 12.49C11.02 12.47 10.9 12.44 10.77 12.38L5.64999 10.1L4.93999 9.78997L4.67998 9.66997L3.46999 9.13C2.49999 8.7 2.49999 7.59997 3.46999 7.16997L10.77 3.91997C11.21 3.73997 11.75 3.73997 12.19 3.91997L19.49 7.16997C20.46 7.58997 20.46 8.7 19.49 9.13Z" stroke="#A29BE6" stroke-width="1.5" stroke-linecap="round" stroke-linejoin="round"/>
<path d="M17.31 10.1V13.93C17.31 14.27 17.15 14.59 16.86 14.78C15.92 15.4 14.03 16.41 11.48 16.41C10.7 16.41 8.40004 16.32 6.10004 14.78C5.82004 14.59 5.66003 14.27 5.66003 13.93V10.11L10.78 12.39C10.91 12.45 11.03 12.48 11.17 12.5C11.38 12.54 11.6 12.54 11.81 12.5C11.95 12.48 12.07 12.45 12.2 12.39L17.31 10.1Z" stroke="#A29BE6" stroke-width="1.5" stroke-linecap="round" stroke-linejoin="round"/>
<path d="M20.22 8.15002V17.14" stroke="#A29BE6" stroke-width="1.5" stroke-linecap="round" stroke-linejoin="round"/>
<path d="M20.22 15.36C19.24 15.36 18.44 16.16 18.44 17.14C18.44 18.12 19.24 18.92 20.22 18.92C21.2 18.92 22 18.12 22 17.14C22 16.16 21.2 15.36 20.22 15.36Z" fill="#A29BE6"/>
<path d="M20.22 18.17V20.22" stroke="#A29BE6" stroke-width="1.5" stroke-linecap="round" stroke-linejoin="round"/>
</svg>
