<svg width="24" height="24" viewBox="0 0 24 24" fill="none" xmlns="http://www.w3.org/2000/svg">
<path d="M12 2.75C12.33 2.75 12.66 2.87001 12.92 3.10001C13.81 3.89001 15.27 5.41999 16.27 7.54999C16.48 7.99999 16.67 8.47 16.83 8.97C16.96 9.39 17.07 9.80999 17.16 10.24C17.63 12.55 17.11 14.94 16.38 17.14C16.1 18 15.88 18.99 15.37 19.75C15.34 19.79 15.32 19.83 15.3 19.86C15.03 20.22 14.61 20.43 14.16 20.43C14.16 20.43 13.08 20.43 12 20.43C10.92 20.43 9.83998 20.43 9.83998 20.43C9.38998 20.43 8.97 20.22 8.7 19.86C8.68 19.82 8.65999 19.79 8.62999 19.75C8.11999 18.99 7.89998 18.01 7.61998 17.14C6.89998 14.94 6.36998 12.55 6.83998 10.24C6.92998 9.80999 7.04 9.39 7.17 8.97C7.33 8.47 7.52 7.99999 7.73 7.54999C8.73 5.41999 10.19 3.90001 11.08 3.10001C11.34 2.87001 11.67 2.75 12 2.75Z" stroke="white" stroke-width="1.5" stroke-linecap="round" stroke-linejoin="round"/>
<path d="M15.37 19.75L17.16 21.07C17.43 21.27 17.76 21.31 18.07 21.2C18.2 21.14 18.31 21.07 18.4 20.98C18.53 20.85 18.62 20.69 18.66 20.5L19.3 17.33C19.39 16.9 19.27 16.48 19 16.15L17.29 14.16C17.3 14.14 17.3 14.12 17.3 14.1" stroke="white" stroke-width="1.5" stroke-linecap="round" stroke-linejoin="round"/>
<path d="M6.70002 14.15L4.99 16.14C4.72 16.47 4.60001 16.9 4.69001 17.32L5.32999 20.49C5.38999 20.81 5.62002 21.07 5.92002 21.19C6.23002 21.3 6.55999 21.26 6.82999 21.06L8.62 19.74" stroke="white" stroke-width="1.5" stroke-linecap="round" stroke-linejoin="round"/>
<path d="M12 11.79C13.0936 11.79 13.98 10.9035 13.98 9.81C13.98 8.71647 13.0936 7.82999 12 7.82999C10.9065 7.82999 10.02 8.71647 10.02 9.81C10.02 10.9035 10.9065 11.79 12 11.79Z" stroke="white" stroke-width="1.5" stroke-linecap="round" stroke-linejoin="round"/>
<path d="M8.04004 16.74H15.96" stroke="white" stroke-width="1.5" stroke-linecap="round" stroke-linejoin="round"/>
</svg>
