<svg width="24" height="24" viewBox="0 0 24 24" fill="none" xmlns="http://www.w3.org/2000/svg">
<path d="M13.88 5.66V18.34C13.88 19.16 13.11 19.66 12.54 19.19L6.17001 15.39C5.74001 15.39 5.3 15.4 4.87 15.4C3.7 15.41 2.75 14.46 2.75 13.29V10.81C2.75 9.65 3.68999 8.7 4.85999 8.7H6.17999V8.71L12.55 4.8C13.11 4.35 13.88 4.84 13.88 5.66Z" stroke="white" stroke-width="1.5" stroke-linecap="round" stroke-linejoin="round"/>
<path d="M19.4 7.53998C20.55 8.67998 21.25 10.26 21.25 12C21.25 13.75 20.54 15.33 19.4 16.46" stroke="white" stroke-width="1.5" stroke-linecap="round" stroke-linejoin="round"/>
<path d="M17.16 9.77002C17.73 10.34 18.09 11.13 18.09 12C18.09 12.87 17.73 13.66 17.16 14.23" stroke="white" stroke-width="1.5" stroke-linecap="round" stroke-linejoin="round"/>
<path d="M13.88 10.95C14.46 10.95 14.93 11.42 14.93 12C14.93 12.58 14.46 13.05 13.88 13.05" stroke="white" stroke-width="1.5" stroke-linecap="round" stroke-linejoin="round"/>
</svg>
