<svg width="20" height="22" viewBox="0 0 20 22" fill="none" xmlns="http://www.w3.org/2000/svg">
<path d="M13.5726 17.5957L13.3805 17.5605L15.3127 6.93359H4.21854L6.15077 17.5605L5.95858 17.5957L3.98456 6.73828H15.5467L15.5258 6.85352L13.5726 17.5957Z" fill="white"/>
<path d="M13.4774 18.1643C13.4424 18.1643 13.4072 18.161 13.3717 18.1545C13.0533 18.0967 12.8422 17.7918 12.9002 17.4733L14.8533 6.73107C14.9112 6.41272 15.2172 6.20158 15.5346 6.25959C15.853 6.3174 16.0641 6.62229 16.0061 6.94084L14.0529 17.683C14.0018 17.9658 13.7551 18.1643 13.4774 18.1643Z" fill="white"/>
<path d="M6.05393 18.1643C5.77619 18.1643 5.52951 17.9658 5.47834 17.683L3.52521 6.94084C3.46721 6.62229 3.67834 6.3174 3.9967 6.25959C4.31408 6.20158 4.62014 6.41272 4.67795 6.73107L6.63108 17.4733C6.68908 17.7918 6.47795 18.0967 6.15959 18.1545C6.12424 18.161 6.08889 18.1643 6.05393 18.1643Z" fill="white"/>
<path d="M13.6719 4.68748C13.3482 4.68748 13.0859 4.42517 13.0859 4.10154V2.03611L10.8146 1.54939C10.4982 1.48162 10.2969 1.1701 10.3644 0.853689C10.432 0.537283 10.7433 0.335525 11.0603 0.403494L13.7947 0.989431C14.0648 1.04744 14.2578 1.28611 14.2578 1.56248V4.10154C14.2578 4.42517 13.9955 4.68748 13.6719 4.68748Z" fill="white"/>
<path d="M11.1328 1.95312C11.6722 1.95312 12.1094 1.5159 12.1094 0.976562C12.1094 0.437222 11.6722 0 11.1328 0C10.5935 0 10.1562 0.437222 10.1562 0.976562C10.1562 1.5159 10.5935 1.95312 11.1328 1.95312Z" fill="white"/>
<path d="M9.93068 14.7949C9.73733 14.7949 9.55002 14.739 9.40334 14.6375L8.09025 13.7275C7.81897 13.5396 7.5965 13.1654 7.56115 12.8377L7.2549 10.0197C7.23205 9.80759 7.29865 9.59724 7.43772 9.44236C7.57678 9.28748 7.77873 9.19861 7.99182 9.19861H11.7352C11.9483 9.19861 12.1502 9.28748 12.2893 9.44236C12.4283 9.59724 12.4949 9.80759 12.4721 10.0195L12.1658 12.8379C12.1311 13.1594 11.9184 13.5349 11.6602 13.731L10.4942 14.614C10.3405 14.7306 10.1405 14.7949 9.93068 14.7949ZM8.03635 9.98005L8.33791 12.7537C8.34885 12.8543 8.45197 13.0277 8.53518 13.0855L9.84826 13.9953C9.85744 14.0015 9.88654 14.0136 9.93088 14.0136C9.97658 14.0136 10.0106 14.0006 10.0223 13.9918L11.1883 13.1088C11.274 13.0437 11.3776 12.8611 11.3891 12.7541L11.6906 9.98025H8.03635V9.98005Z" fill="white"/>
<path d="M19.1406 21.0938H0.585938C0.262305 21.0938 0 20.8314 0 20.5078V17.5781C0 17.2545 0.262305 16.9922 0.585938 16.9922H6.05469C6.37832 16.9922 6.64062 17.2545 6.64062 17.5781C6.64062 17.9018 6.37832 18.1641 6.05469 18.1641H1.17188V19.9219H18.5547V18.1641H13.4766C13.1529 18.1641 12.8906 17.9018 12.8906 17.5781C12.8906 17.2545 13.1529 16.9922 13.4766 16.9922H19.1406C19.4643 16.9922 19.7266 17.2545 19.7266 17.5781V20.5078C19.7266 20.8314 19.4643 21.0938 19.1406 21.0938Z" fill="white"/>
<path d="M13.6719 18.1641H6.05469C5.83887 18.1641 5.66406 17.9891 5.66406 17.7734C5.66406 17.5578 5.83887 17.3828 6.05469 17.3828H13.6719C13.8875 17.3828 14.0625 17.5578 14.0625 17.7734C14.0625 17.9891 13.8877 18.1641 13.6719 18.1641Z" fill="white"/>
<path d="M15.235 9.375C15.052 9.375 14.8721 9.28965 14.7576 9.12969C14.5695 8.86621 14.6307 8.5002 14.8937 8.31231L17.3828 6.53438V4.88281H2.34375V6.54727L4.6541 8.32461C4.91055 8.52207 4.95859 8.88985 4.76133 9.14629C4.56387 9.40293 4.1957 9.45059 3.93965 9.25352L1.40059 7.30039C1.25645 7.18945 1.17188 7.01797 1.17188 6.83594V4.29688C1.17188 3.97324 1.43418 3.71094 1.75781 3.71094H17.9688C18.2924 3.71094 18.5547 3.97324 18.5547 4.29688V6.83594C18.5547 7.0252 18.4633 7.20274 18.3094 7.3127L15.575 9.26582C15.4717 9.33945 15.3527 9.375 15.235 9.375Z" fill="white"/>
<path d="M17.3828 7.03125H1.95312C1.7373 7.03125 1.5625 6.85625 1.5625 6.64063C1.5625 6.425 1.7373 6.25 1.95312 6.25H17.3828C17.5984 6.25 17.7734 6.425 17.7734 6.64063C17.7734 6.85625 17.5986 7.03125 17.3828 7.03125Z" fill="white"/>
<path d="M6.24964 17.9687C6.06448 17.9687 5.90003 17.8365 5.86565 17.6478L3.91253 6.90565C3.87405 6.69355 4.01468 6.49003 4.22698 6.45155C4.43889 6.41366 4.64241 6.5539 4.68108 6.76601L6.63421 17.5082C6.67268 17.7203 6.53206 17.9238 6.31975 17.9623C6.29632 17.9666 6.27268 17.9687 6.24964 17.9687Z" fill="white"/>
<path d="M13.2531 17.9688C13.2297 17.9688 13.2058 17.9666 13.1818 17.9623C12.9697 17.9232 12.8295 17.7195 12.8685 17.5072L14.8869 6.56973C14.926 6.35762 15.1281 6.217 15.342 6.25645C15.5541 6.29551 15.6943 6.49922 15.6552 6.71153L13.6369 17.649C13.6023 17.8371 13.4381 17.9688 13.2531 17.9688Z" fill="white"/>
</svg>
