<svg width="24" height="24" viewBox="0 0 24 24" fill="none" xmlns="http://www.w3.org/2000/svg">
<path d="M6.24001 9.49001L6.7 10.72C6.72 10.77 6.76 10.8 6.81 10.8C6.86 10.8 6.9 10.77 6.92 10.72L7.38 9.49001C7.75 8.49001 8.54 7.71001 9.55 7.34001L10.79 6.89001C10.84 6.87001 10.87 6.83001 10.87 6.78001C10.87 6.73001 10.84 6.69001 10.79 6.67001L9.55 6.22001C8.54 5.85001 7.75 5.07001 7.38 4.07001L6.92 2.84001C6.9 2.79001 6.86 2.76001 6.81 2.76001C6.76 2.76001 6.72 2.79001 6.7 2.84001L6.24001 4.07001C5.87001 5.07001 5.08001 5.85001 4.07001 6.22001L2.83 6.67001C2.78 6.69001 2.75 6.73001 2.75 6.78001C2.75 6.83001 2.78 6.87001 2.83 6.89001L4.07001 7.34001C5.07001 7.70001 5.87001 8.49001 6.24001 9.49001Z" stroke="white" stroke-width="1.5" stroke-linecap="round" stroke-linejoin="round"/>
<path d="M21.17 17.12L19.93 16.67C18.92 16.3 18.13 15.52 17.76 14.52L17.3 13.29C17.28 13.24 17.24 13.21 17.19 13.21C17.14 13.21 17.1 13.24 17.08 13.29L16.62 14.52C16.25 15.52 15.46 16.3 14.45 16.67L13.21 17.12C13.16 17.14 13.13 17.18 13.13 17.23C13.13 17.28 13.16 17.32 13.21 17.34L14.45 17.79C15.46 18.16 16.25 18.94 16.62 19.94L17.08 21.17C17.1 21.22 17.14 21.25 17.19 21.25C17.24 21.25 17.28 21.22 17.3 21.17L17.76 19.94C18.13 18.94 18.92 18.16 19.93 17.79L21.17 17.34C21.22 17.32 21.25 17.28 21.25 17.23C21.25 17.18 21.22 17.13 21.17 17.12Z" stroke="white" stroke-width="1.5" stroke-linecap="round" stroke-linejoin="round"/>
<path d="M20.07 5.20003L19.72 5.07003C19.43 4.97003 19.21 4.74003 19.1 4.46003L18.97 4.11003C18.97 4.10003 18.95 4.09003 18.94 4.09003C18.93 4.09003 18.91 4.10003 18.91 4.11003L18.78 4.46003C18.67 4.74003 18.45 4.97003 18.16 5.07003L17.81 5.20003C17.8 5.20003 17.79 5.22003 17.79 5.23003C17.79 5.24003 17.8 5.26003 17.81 5.26003L18.16 5.39003C18.45 5.49003 18.67 5.72003 18.78 6.00003L18.91 6.35003C18.91 6.36003 18.93 6.37003 18.94 6.37003C18.95 6.37003 18.97 6.36003 18.97 6.35003L19.1 6.00003C19.21 5.72003 19.43 5.49003 19.72 5.39003L20.07 5.26003C20.08 5.26003 20.09 5.24003 20.09 5.23003C20.1 5.22003 20.09 5.21003 20.07 5.20003Z" stroke="white" stroke-width="1.5" stroke-linecap="round" stroke-linejoin="round"/>
<path d="M7.36998 18.53L6.77998 18.31C6.29998 18.14 5.92998 17.76 5.74998 17.29L5.52998 16.71C5.51998 16.69 5.49998 16.67 5.47998 16.67C5.45998 16.67 5.43998 16.68 5.42998 16.71L5.20999 17.29C5.02999 17.76 4.65998 18.13 4.17998 18.31L3.58998 18.53C3.56998 18.54 3.54999 18.56 3.54999 18.58C3.54999 18.6 3.55998 18.62 3.58998 18.63L4.17998 18.85C4.65998 19.02 5.02999 19.4 5.20999 19.87L5.42998 20.45C5.43998 20.47 5.45998 20.49 5.47998 20.49C5.49998 20.49 5.51998 20.48 5.52998 20.45L5.74998 19.87C5.92998 19.4 6.29998 19.03 6.77998 18.85L7.36998 18.63C7.38998 18.62 7.40999 18.6 7.40999 18.58C7.40999 18.56 7.38998 18.54 7.36998 18.53Z" fill="black" stroke="white" stroke-width="1.5" stroke-linecap="round" stroke-linejoin="round"/>
</svg>
