<svg width="20" height="19" viewBox="0 0 20 19" fill="none" xmlns="http://www.w3.org/2000/svg">
<path d="M11.4256 1.90114L13.0295 5.00507C13.2299 5.5057 13.7311 5.80608 14.2323 5.90621L17.6405 6.40685C18.9436 6.6071 19.4448 8.20913 18.5427 9.11027L16.0367 11.4132C15.6357 11.8137 15.4352 12.3143 15.5355 12.815L16.1369 16.1191C16.3374 17.4208 15.0343 18.4221 13.8314 17.8213L10.7239 16.2193C10.2227 16.019 9.72153 16.019 9.22033 16.2193L6.11289 17.8213C4.91001 18.4221 3.60689 17.4208 3.80737 16.1191L4.40881 12.815C4.50905 12.3143 4.30857 11.7136 3.90761 11.4132L1.50184 9.01014C0.499444 8.109 1.10088 6.50697 2.40401 6.30672L5.81217 5.80608C6.31337 5.70596 6.81457 5.40558 7.01505 5.00507L8.51865 1.90114C9.22033 0.69962 10.8242 0.69962 11.4256 1.90114Z" fill="#F6C96A" stroke="#F6C96A" stroke-width="1.5" stroke-linecap="round" stroke-linejoin="round"/>
</svg>
