<svg width="24" height="24" viewBox="0 0 24 24" fill="none" xmlns="http://www.w3.org/2000/svg">
<path d="M2.75 7.9V5.83C2.75 4.12 4.13 2.75 5.83 2.75H7.99001" stroke="white" stroke-width="1.5" stroke-linecap="round" stroke-linejoin="round"/>
<path d="M21.1 7.9V5.83C21.1 4.12 19.72 2.75 18.02 2.75H15.86" stroke="white" stroke-width="1.5" stroke-linecap="round" stroke-linejoin="round"/>
<path d="M2.75 16.02V18.09C2.75 19.8 4.13 21.17 5.83 21.17H7.99001" stroke="white" stroke-width="1.5" stroke-linecap="round" stroke-linejoin="round"/>
<path d="M21.1 16.02V18.09C21.1 19.8 19.72 21.17 18.02 21.17H15.86" stroke="white" stroke-width="1.5" stroke-linecap="round" stroke-linejoin="round"/>
<path d="M11.8 10.7C13.1642 10.7 14.27 9.59415 14.27 8.23001C14.27 6.86587 13.1642 5.76001 11.8 5.76001C10.4359 5.76001 9.33002 6.86587 9.33002 8.23001C9.33002 9.59415 10.4359 10.7 11.8 10.7Z" stroke="white" stroke-width="1.5" stroke-linecap="round" stroke-linejoin="round"/>
<path d="M6.82001 17.53V16.12C6.82001 14.48 8.15 13.16 9.78 13.16H14.21C15.85 13.16 17.17 14.49 17.17 16.12V17.53" stroke="white" stroke-width="1.5" stroke-linecap="round" stroke-linejoin="round"/>
</svg>
